<?xml version="1.0" encoding="utf-8"?>
<!-- Uploaded to: SVG Repo, www.svgrepo.com, Generator: SVG Repo Mixer Tools -->
<svg width="800px" height="800px" viewBox="0 0 1024 1024" class="icon"  version="1.1" xmlns="http://www.w3.org/2000/svg"><path d="M345.9 413.7l263.2 300.6 140-133.3-253.3-303.2zM837.4 329.8l-73.3-83.7-173.5 110L714 496z" fill="#446EB1" /><path d="M340.9 448.6s-146.6 70-223.3 41.7l318.2 403.2s115-164.9 138.3-166.6L340.9 448.6z" fill="#E1F0FF" /><path d="M555.1 751.1c8.6-10 17.6-20.4 25.2-28.6L342.9 439.3l-5.2 2.5c-1.4 0.7-144.7 68.3-217.4 41.4l-25-9.2 341 432.1 5.8-8.3c0.3-0.4 28.3-40.6 59.1-80.9 17.1-22.4 30.4-38.8 40.6-50.7 5.1-6.2 9.6-11.1 13.3-15.1z m-64.8 55.1c-23 30.2-44.8 60.5-54.8 74.7L137.1 502.8c72.5 10.9 176.8-33.7 201.7-45l223.4 266.5c-5.7 4-13.5 11.3-25.1 24.3-12.6 14-28.3 33.4-46.8 57.6z" fill="#6D9EE8" /></svg>