<?xml version="1.0" encoding="iso-8859-1"?>
<!-- Uploaded to: SVG Repo, www.svgrepo.com, Generator: SVG Repo Mixer Tools -->
<svg version="1.1" id="Layer_1" xmlns="http://www.w3.org/2000/svg" xmlns:xlink="http://www.w3.org/1999/xlink" 
	 viewBox="0 0 491.2 491.2" xml:space="preserve">
<rect y="312" style="fill:#EF3388;" width="178.4" height="178.4"/>
<polyline style="fill:#BC086B;" points="0,312 179.2,312 179.2,491.2 "/>
<rect x="86.4" style="fill:#2E9BCC;" width="404.8" height="404.8"/>
<polyline style="fill:#207EB7;" points="86.4,0 491.2,0 491.2,404.8 "/>
<path style="fill:#9CE1FF;" d="M416.8,74.4c2.4,2.4,2.4,7.2,0,9.6L169.6,331.2c-2.4,2.4-7.2,2.4-9.6,0l0,0c-2.4-2.4-2.4-7.2,0-9.6
	L407.2,74.4C409.6,72,414.4,72,416.8,74.4L416.8,74.4z"/>
<rect x="86.4" y="312" style="fill:#7B49AA;" width="92.8" height="92.8"/>
<g>
	<path style="fill:#9CE1FF;" d="M90.4,408h-4c-1.6,0-3.2-1.6-3.2-3.2v-4c0-1.6,1.6-3.2,3.2-3.2s3.2,1.6,3.2,3.2v0.8h0.8
		c1.6,0,3.2,1.6,3.2,3.2S92,408,90.4,408z"/>
	<path style="fill:#9CE1FF;" d="M167.2,408h-8c-1.6,0-3.2-1.6-3.2-3.2s1.6-3.2,3.2-3.2h8c1.6,0,3.2,1.6,3.2,3.2S168.8,408,167.2,408
		z M152,408h-8c-1.6,0-3.2-1.6-3.2-3.2s1.6-3.2,3.2-3.2h8c1.6,0,3.2,1.6,3.2,3.2S153.6,408,152,408z M136,408h-8
		c-1.6,0-3.2-1.6-3.2-3.2s1.6-3.2,3.2-3.2h8c1.6,0,3.2,1.6,3.2,3.2S138.4,408,136,408z M120.8,408h-8c-1.6,0-3.2-1.6-3.2-3.2
		s1.6-3.2,3.2-3.2h8c1.6,0,3.2,1.6,3.2,3.2S122.4,408,120.8,408z M105.6,408h-8c-1.6,0-3.2-1.6-3.2-3.2s1.6-3.2,3.2-3.2h8
		c1.6,0,3.2,1.6,3.2,3.2S107.2,408,105.6,408z"/>
	<path style="fill:#9CE1FF;" d="M179.2,408h-4c-1.6,0-3.2-1.6-3.2-3.2s1.6-3.2,3.2-3.2h0.8v-0.8c0-1.6,1.6-3.2,3.2-3.2
		s3.2,1.6,3.2,3.2v4C181.6,406.4,180.8,408,179.2,408z"/>
	<path style="fill:#9CE1FF;" d="M179.2,396c-1.6,0-3.2-1.6-3.2-3.2v-8c0-1.6,1.6-3.2,3.2-3.2s3.2,1.6,3.2,3.2v8
		C181.6,395.2,180.8,396,179.2,396z M179.2,380.8c-1.6,0-3.2-1.6-3.2-3.2v-8c0-1.6,1.6-3.2,3.2-3.2s3.2,1.6,3.2,3.2v8
		C181.6,380,180.8,380.8,179.2,380.8z M179.2,365.6c-1.6,0-3.2-1.6-3.2-3.2v-8c0-1.6,1.6-3.2,3.2-3.2s3.2,1.6,3.2,3.2v8
		C181.6,364,180.8,365.6,179.2,365.6z M179.2,350.4c-1.6,0-3.2-1.6-3.2-3.2v-8c0-1.6,1.6-3.2,3.2-3.2s3.2,1.6,3.2,3.2v8
		C181.6,348.8,180.8,350.4,179.2,350.4z M179.2,334.4c-1.6,0-3.2-1.6-3.2-3.2v-8c0-1.6,1.6-3.2,3.2-3.2s3.2,1.6,3.2,3.2v8
		C181.6,333.6,180.8,334.4,179.2,334.4z"/>
	<path style="fill:#9CE1FF;" d="M179.2,319.2c-1.6,0-3.2-1.6-3.2-3.2v-0.8h-0.8c-1.6,0-3.2-1.6-3.2-3.2s1.6-2.4,3.2-2.4h4
		c1.6,0,3.2,1.6,3.2,3.2v4C181.6,317.6,180.8,319.2,179.2,319.2z"/>
	<path style="fill:#9CE1FF;" d="M167.2,315.2h-8c-1.6,0-3.2-1.6-3.2-3.2s1.6-2.4,3.2-2.4h8c1.6,0,3.2,1.6,3.2,3.2
		S168.8,315.2,167.2,315.2z M152,315.2h-8c-1.6,0-3.2-1.6-3.2-3.2s1.6-3.2,3.2-3.2h8c1.6,0,3.2,1.6,3.2,3.2S153.6,315.2,152,315.2z
		 M136,315.2h-8c-1.6,0-3.2-1.6-3.2-3.2s1.6-3.2,3.2-3.2h8c1.6,0,3.2,1.6,3.2,3.2S138.4,315.2,136,315.2z M120.8,315.2h-8
		c-1.6,0-3.2-1.6-3.2-3.2s1.6-3.2,3.2-3.2h8c1.6,0,3.2,1.6,3.2,3.2S122.4,315.2,120.8,315.2z M105.6,315.2h-8
		c-1.6,0-3.2-1.6-3.2-3.2s1.6-3.2,3.2-3.2h8c1.6,0,3.2,1.6,3.2,3.2S107.2,315.2,105.6,315.2z"/>
	<path style="fill:#9CE1FF;" d="M86.4,319.2c-1.6,0-3.2-1.6-3.2-3.2v-4c0-1.6,1.6-3.2,3.2-3.2h4c1.6,0,3.2,1.6,3.2,3.2
		s-1.6,3.2-3.2,3.2h-0.8v0.8C88.8,317.6,88,319.2,86.4,319.2z"/>
	<path style="fill:#9CE1FF;" d="M86.4,396c-1.6,0-3.2-1.6-3.2-3.2v-8c0-1.6,1.6-3.2,3.2-3.2s3.2,1.6,3.2,3.2v8
		C88.8,395.2,88,396,86.4,396z M86.4,380.8c-1.6,0-3.2-1.6-3.2-3.2v-8c0-1.6,1.6-3.2,3.2-3.2s3.2,1.6,3.2,3.2v8
		C88.8,380,88,380.8,86.4,380.8z M86.4,365.6c-1.6,0-3.2-1.6-3.2-3.2v-8c0-1.6,1.6-3.2,3.2-3.2s3.2,1.6,3.2,3.2v8
		C88.8,364,88,365.6,86.4,365.6z M86.4,350.4c-1.6,0-3.2-1.6-3.2-3.2v-8c0-1.6,1.6-3.2,3.2-3.2s3.2,1.6,3.2,3.2v8
		C88.8,348.8,88,350.4,86.4,350.4z M86.4,334.4c-1.6,0-3.2-1.6-3.2-3.2v-8c0-1.6,1.6-3.2,3.2-3.2s3.2,1.6,3.2,3.2v8
		C88.8,333.6,88,334.4,86.4,334.4z"/>
</g>
<polygon style="fill:#DEF6FF;" points="366.4,54.4 366.4,75.2 416,75.2 416,124.8 436.8,124.8 436.8,54.4 "/>
<polyline style="fill:#9CE1FF;" points="416,75.2 416,124.8 436.8,124.8 436.8,54.4 "/>
</svg>